<svg xmlns="http://www.w3.org/2000/svg" width="953" height="512" viewBox="0 0 953 512"><rect width="100%" height="100%" fill="#DDDDDD"/><path fill="#999999" d="M211.175 237.79q0 7.63 3.94 11.63 3.94 4 11.18 4 3.78 0 6.74-1.2 2.96-1.2 4.98-3.27 2.02-2.08 3.06-4.92 1.04-2.83 1.04-6.11 0-3.72-1.14-6.65-1.13-2.93-3.21-4.94-2.08-2.02-4.95-3.09-2.86-1.07-6.27-1.07-3.52 0-6.36 1.17-2.83 1.16-4.85 3.24-2.02 2.08-3.09 4.95-1.07 2.86-1.07 6.26Zm-7.62 63.76 28.29-35.34q1.07-1.33 2.01-2.59.95-1.26 1.83-2.52-3.15 2.02-6.93 3.06t-7.94 1.04q-4.72 0-9.26-1.64t-8.06-4.94q-3.53-3.31-5.71-8.19-2.17-4.89-2.17-11.44 0-6.11 2.27-11.47 2.27-5.35 6.36-9.38 4.1-4.03 9.83-6.37 5.73-2.33 12.66-2.33 7 0 12.57 2.21 5.58 2.2 9.51 6.17 3.94 3.97 6.05 9.52 2.11 5.54 2.11 12.16 0 4.22-.72 8-.73 3.78-2.05 7.27-1.32 3.5-3.21 6.84t-4.22 6.61l-20.86 29.74q-1.07 1.51-3.21 2.55-2.14 1.04-4.85 1.04h-14.3Zm88.7-76.99-3.21 18.97q3.02-.63 5.8-.92 2.77-.28 5.35-.28 7.18 0 12.66 2.14 5.49 2.14 9.2 5.92 3.72 3.78 5.61 8.86 1.89 5.07 1.89 10.93 0 7.24-2.55 13.23-2.55 5.98-7.09 10.23-4.54 4.26-10.74 6.59-6.21 2.33-13.52 2.33-4.28 0-8.12-.88-3.84-.89-7.22-2.37-3.37-1.48-6.23-3.4-2.87-1.92-5.14-4.06l4.79-6.62q1.51-2.14 3.97-2.14 1.58 0 3.21 1.01 1.64 1.01 3.75 2.2 2.11 1.2 4.98 2.21 2.87 1.01 6.9 1.01 4.28 0 7.56-1.39 3.27-1.38 5.45-3.87 2.17-2.49 3.27-5.93 1.11-3.43 1.11-7.46 0-7.44-4.32-11.62-4.32-4.19-12.76-4.19-6.49 0-13.29 2.39l-9.7-2.77 7.56-44.23h44.98v6.62q0 3.34-2.08 5.42-2.08 2.07-7.06 2.07h-25.01Zm59.29 12.73-8.19-1.45q.94-6.55 3.65-11.5 2.71-4.94 6.77-8.25 4.07-3.31 9.33-4.98 5.26-1.67 11.3-1.67 6.31 0 11.38 1.8 5.07 1.79 8.66 4.98 3.59 3.18 5.51 7.46 1.92 4.29 1.92 9.26 0 4.35-.97 7.66-.98 3.3-2.81 5.76-1.82 2.46-4.53 4.16-2.71 1.7-6.11 2.83 8.19 2.59 12.22 7.88 4.03 5.29 4.03 13.29 0 6.81-2.52 12.04-2.52 5.22-6.8 8.78-4.29 3.56-9.93 5.39-5.64 1.83-11.94 1.83-6.86 0-11.96-1.58-5.11-1.57-8.89-4.66-3.78-3.09-6.42-7.56-2.65-4.47-4.54-10.33l6.87-2.84q2.71-1.13 5.07-.59 2.36.53 3.43 2.55 1.14 2.2 2.49 4.34 1.36 2.15 3.25 3.82 1.88 1.66 4.44 2.7 2.55 1.04 6.08 1.04 3.97 0 6.93-1.29 2.96-1.29 4.94-3.37 1.99-2.08 2.96-4.63.98-2.55.98-5.13 0-3.28-.69-5.96-.7-2.67-2.9-4.56-2.21-1.89-6.33-2.97-4.13-1.07-11.06-1.07v-11.08q5.73-.07 9.51-1.07 3.78-1.01 6.02-2.81 2.24-1.79 3.12-4.31.88-2.52.88-5.55 0-6.42-3.59-9.76t-9.58-3.34q-2.77 0-5.1.79-2.33.78-4.19 2.2-1.86 1.42-3.12 3.31-1.26 1.89-1.89 4.16-1.07 2.89-2.8 3.84-1.73.94-4.88.44Zm154.98 43.41-8.26 8.12-21.35-21.35-21.55 21.48-8.25-8.13 21.54-21.61-20.54-20.53 8.19-8.19 20.54 20.53 20.41-20.41 8.32 8.19-20.47 20.48 21.42 21.42Zm66.21-56.14-3.21 18.97q3.02-.63 5.79-.92 2.77-.28 5.36-.28 7.18 0 12.66 2.14t9.2 5.92q3.71 3.78 5.6 8.86 1.9 5.07 1.9 10.93 0 7.24-2.56 13.23-2.55 5.98-7.08 10.23-4.54 4.26-10.75 6.59-6.2 2.33-13.51 2.33-4.28 0-8.13-.88-3.84-.89-7.21-2.37t-6.24-3.4q-2.86-1.92-5.13-4.06l4.79-6.62q1.51-2.14 3.97-2.14 1.57 0 3.21 1.01t3.75 2.2q2.11 1.2 4.97 2.21 2.87 1.01 6.9 1.01 4.29 0 7.56-1.39 3.28-1.38 5.45-3.87 2.18-2.49 3.28-5.93 1.1-3.43 1.1-7.46 0-7.44-4.31-11.62-4.32-4.19-12.76-4.19-6.49 0-13.3 2.39l-9.7-2.77 7.56-44.23h44.98v6.62q0 3.34-2.07 5.42-2.08 2.07-7.06 2.07h-25.01Zm93.11 65.34h16.38v11.65h-50.4V289.9h18.46v-53.11q0-3.15.19-6.49l-13.1 10.96q-1.14.88-2.24 1.1-1.1.22-2.08.03t-1.73-.66q-.76-.47-1.13-1.04l-4.92-6.74 27.78-23.62h12.79v79.57Zm62.69-2.84h23.37q2.52 0 4 1.42t1.48 3.75v9.32h-62.49v-5.17q0-1.57.66-3.3.66-1.74 2.11-3.12l27.65-27.72q3.47-3.53 6.21-6.74 2.74-3.22 4.57-6.37 1.82-3.15 2.8-6.39.98-3.24.98-6.84 0-3.27-.95-5.76-.94-2.49-2.67-4.19-1.74-1.7-4.16-2.55-2.43-.85-5.45-.85-2.77 0-5.14.79-2.36.78-4.19 2.2-1.82 1.42-3.08 3.31-1.26 1.89-1.89 4.16-1.07 2.89-2.78 3.84-1.7.94-4.91.44l-8.19-1.45q.95-6.55 3.65-11.5 2.71-4.94 6.78-8.25 4.06-3.31 9.32-4.98 5.26-1.67 11.31-1.67 6.3 0 11.53 1.86 5.23 1.86 8.94 5.26 3.72 3.41 5.8 8.19 2.08 4.79 2.08 10.65 0 5.04-1.48 9.32-1.48 4.29-3.97 8.19-2.49 3.91-5.83 7.56-3.34 3.66-6.99 7.44l-20.54 20.98q2.96-.88 5.89-1.36 2.93-.47 5.58-.47Z"/></svg>