<svg xmlns="http://www.w3.org/2000/svg" width="32.6" height="35.6" viewBox="0 0 32.6 35.6" class="svg replaced-svg">
  <path id="f4" d="M-6107.3,35a.691.691,0,0,1-.7-.684,10.084,10.084,0,0,1,6.636-9.456l3.306-1.083,1.187-2.332c-.1-.1-.208-.212-.307-.324a7.392,7.392,0,0,1-1.166-1.775h-.612a2.072,2.072,0,0,1-2.087-2.051v-.8a2.058,2.058,0,0,1-1.391-1.933V10.253A10.339,10.339,0,0,1-6092,0a10.357,10.357,0,0,1,10.434,10.253v4.308a2.071,2.071,0,0,1-2.087,2.049h-1.266l-.147.873a7.456,7.456,0,0,1-2.062,3.961l1.187,2.333,3.308,1.083A10.084,10.084,0,0,1-6076,34.316a.69.69,0,0,1-.7.684Zm19.341-5.618s0,0,0,0a.162.162,0,0,0-.01.018,27.614,27.614,0,0,1-1.917,2.881l-.857,1.35h13.329a8.661,8.661,0,0,0-5.656-7.475L-6086,25.2A27.057,27.057,0,0,1-6087.963,29.382Zm-12.962-3.225a8.661,8.661,0,0,0-5.657,7.475h13.329l-.856-1.35a27.038,27.038,0,0,1-1.9-2.858.04.04,0,0,1,0-.007A27.188,27.188,0,0,1-6098,25.2Zm6.38,3.028a26.022,26.022,0,0,0,1.567,2.3c.012.015.023.032.034.049l.944,1.488c.991-1.562.942-1.493.976-1.537a26.071,26.071,0,0,0,1.574-2.311l-2.615-2.569Zm3.437-3.572,2.362,2.321a25.819,25.819,0,0,0,1.558-3.551l-.948-1.86Zm-5.7-1.229a25.97,25.97,0,0,0,1.556,3.548l2.208-2.292-2.935-2.885Zm4.72.262,1.229-1.278a7.133,7.133,0,0,1-1.137.093,7.139,7.139,0,0,1-1.45-.15Zm-1.275-2.718a5.767,5.767,0,0,0,2.735,0,5.838,5.838,0,0,0,4.192-4.67c.129-.761.18-1.034.243-1.458h0a41.369,41.369,0,0,0,.41-4.178l-1.025-.144a12.674,12.674,0,0,1-6.855-3.266,4.919,4.919,0,0,0-3.621,1.906l-.935,1.227a38.415,38.415,0,0,0,.834,6.635h2.028a2.087,2.087,0,0,1,1.969-1.369H-6092a2.072,2.072,0,0,1,2.087,2.052A2.069,2.069,0,0,1-6092,20.713h-1.392a2.09,2.09,0,0,1-1.968-1.368h-1.417A5.631,5.631,0,0,0-6093.368,21.928Zm-.719-3.266a.69.69,0,0,0,.695.683H-6092a.689.689,0,0,0,.695-.683.689.689,0,0,0-.695-.683h-1.392A.689.689,0,0,0-6094.087,18.662Zm-5.565-1.368a.691.691,0,0,0,.695.684h.126c-.04-.165-.075-.33-.1-.5l-.148-.873h-.571Zm15.281-6.24c-.048,1.41-.165,2.844-.343,4.19h1.061a.69.69,0,0,0,.7-.683V10.938h-1.411Zm-16.673,3.506a.69.69,0,0,0,.7.683h1.062c-.173-1.316-.289-2.711-.338-4.083h0v-.007c0-.072-.006-.143-.008-.215h-1.412Zm8.144-7.524a11.259,11.259,0,0,0,6.285,3.088l.871.122v-.007c0-.17,0-.358,0-.572a5.607,5.607,0,0,0-5.638-5.565h-1.246a5.62,5.62,0,0,0-5.607,4.984,6.338,6.338,0,0,1,4.839-2.249A.7.7,0,0,1-6092.9,7.037Zm1.522-4.3a6.99,6.99,0,0,1,7.029,6.836h1.364a8.991,8.991,0,0,0-9.016-8.2,8.975,8.975,0,0,0-9.018,8.2h1.365a6.989,6.989,0,0,1,7.028-6.836Zm10.623,28.744a5.464,5.464,0,0,0-1.573-1.877.678.678,0,0,1-.126-.96.7.7,0,0,1,.975-.124,6.841,6.841,0,0,1,1.968,2.349.675.675,0,0,1-.311.917.7.7,0,0,1-.311.073A.7.7,0,0,1-6080.755,31.478Zm-4.289-3.723a.691.691,0,0,1,.7-.684.69.69,0,0,1,.694.684.689.689,0,0,1-.694.683A.69.69,0,0,1-6085.044,27.755Z" transform="translate(6108.301 0.3)" fill="#fd8601" stroke="#f9f9f9" stroke-width="0.6"/>
</svg>