<svg xmlns="http://www.w3.org/2000/svg" width="510" height="690" viewBox="0 0 510 690"><rect width="100%" height="100%" fill="#DDDDDD"/><path fill="#999999" d="m115.345 328.035-1.73 10.24q1.63-.34 3.13-.5 1.49-.15 2.89-.15 3.87 0 6.83 1.16 2.96 1.15 4.97 3.19 2 2.04 3.02 4.78t1.02 5.9q0 3.91-1.38 7.14-1.37 3.23-3.82 5.52-2.45 2.3-5.8 3.56-3.35 1.25-7.29 1.25-2.31 0-4.39-.47-2.07-.48-3.89-1.28-1.82-.8-3.37-1.83-1.54-1.04-2.77-2.2l2.59-3.57q.81-1.15 2.14-1.15.85 0 1.73.54.89.55 2.03 1.19 1.14.65 2.68 1.19 1.55.55 3.73.55 2.31 0 4.08-.75 1.76-.75 2.94-2.09 1.17-1.35 1.76-3.2.6-1.85.6-4.03 0-4.01-2.33-6.27t-6.88-2.26q-3.51 0-7.18 1.29l-5.23-1.5 4.08-23.86h24.27v3.57q0 1.8-1.12 2.92-1.12 1.12-3.81 1.12h-13.5Zm50.26 35.26h8.84v6.29h-27.2v-6.29h9.96v-28.66q0-1.7.1-3.5l-7.07 5.91q-.61.48-1.21.6-.59.12-1.12.01-.53-.1-.94-.35-.4-.26-.61-.56l-2.65-3.64 14.99-12.75h6.91v42.94Zm50.83-18.29q0 6.42-1.38 11.17-1.38 4.74-3.81 7.83-2.43 3.1-5.75 4.61-3.31 1.51-7.15 1.51-3.84 0-7.13-1.51-3.28-1.51-5.69-4.61-2.41-3.09-3.77-7.83-1.36-4.75-1.36-11.17 0-6.46 1.36-11.19 1.36-4.72 3.77-7.82 2.41-3.09 5.69-4.61 3.29-1.51 7.13-1.51t7.15 1.51q3.32 1.52 5.75 4.61 2.43 3.1 3.81 7.82 1.38 4.73 1.38 11.19Zm-8.67 0q0-5.34-.79-8.84-.78-3.5-2.09-5.58-1.31-2.07-3.01-2.91-1.7-.83-3.53-.83-1.8 0-3.49.83-1.68.84-2.97 2.91-1.29 2.08-2.06 5.58-.76 3.5-.76 8.84t.76 8.84q.77 3.5 2.06 5.57 1.29 2.08 2.97 2.91 1.69.83 3.49.83 1.83 0 3.53-.83 1.7-.83 3.01-2.91 1.31-2.07 2.09-5.57.79-3.5.79-8.84Zm62.66 13.33-4.46 4.38-11.52-11.52-11.63 11.59-4.45-4.39 11.62-11.66-11.08-11.08 4.42-4.42 11.08 11.08 11.02-11.01 4.49 4.42-11.05 11.05 11.56 11.56Zm52.53-37.91-14.59 17.85-1.7 2.1q1.43-.71 3.08-1.1 1.65-.39 3.55-.39 2.79 0 5.42.92 2.64.91 4.65 2.77 2 1.85 3.23 4.6 1.22 2.76 1.22 6.43 0 3.43-1.26 6.44-1.26 3.01-3.53 5.26-2.28 2.24-5.5 3.53-3.21 1.29-7.08 1.29-3.95 0-7.08-1.25-3.12-1.26-5.33-3.52t-3.39-5.44q-1.17-3.18-1.17-7.06 0-3.47 1.41-7.12 1.41-3.66 4.37-7.6l11.73-15.74q.61-.82 1.78-1.4 1.18-.57 2.71-.57h7.48Zm-12.68 42.84q2 0 3.68-.68 1.69-.68 2.89-1.91 1.21-1.22 1.89-2.87.68-1.65.68-3.59 0-2.11-.64-3.79-.65-1.68-1.84-2.86-1.19-1.17-2.86-1.78-1.66-.61-3.67-.61-2 0-3.64.68-1.63.68-2.78 1.88-1.16 1.21-1.81 2.86-.64 1.65-.64 3.55 0 2.04.56 3.73.56 1.68 1.66 2.87 1.11 1.19 2.74 1.85 1.63.67 3.78.67Zm31-28.09q0 4.12 2.13 6.27 2.12 2.16 6.03 2.16 2.04 0 3.64-.64 1.6-.65 2.69-1.77 1.09-1.12 1.65-2.65.56-1.53.56-3.3 0-2.01-.61-3.59-.62-1.58-1.74-2.67-1.12-1.08-2.67-1.66-1.54-.58-3.38-.58-1.9 0-3.43.63-1.53.63-2.62 1.75t-1.67 2.67q-.58 1.55-.58 3.38Zm-4.11 34.41 15.27-19.07q.57-.72 1.08-1.4.51-.68.99-1.36-1.7 1.09-3.74 1.65-2.04.56-4.28.56-2.55 0-5-.88-2.45-.89-4.35-2.67-1.91-1.79-3.08-4.42-1.17-2.64-1.17-6.17 0-3.3 1.22-6.19 1.22-2.89 3.43-5.07 2.21-2.17 5.31-3.43 3.09-1.26 6.83-1.26 3.78 0 6.79 1.19 3 1.19 5.13 3.33 2.12 2.15 3.26 5.14 1.14 2.99 1.14 6.56 0 2.28-.39 4.32-.39 2.04-1.1 3.92-.72 1.89-1.74 3.69-1.02 1.81-2.28 3.57l-11.25 16.05q-.58.82-1.73 1.38-1.16.56-2.62.56h-7.72Zm70.07-24.58q0 6.42-1.37 11.17-1.38 4.74-3.81 7.83-2.43 3.1-5.75 4.61-3.31 1.51-7.15 1.51-3.85 0-7.13-1.51t-5.69-4.61q-2.42-3.09-3.78-7.83-1.36-4.75-1.36-11.17 0-6.46 1.36-11.19 1.36-4.72 3.78-7.82 2.41-3.09 5.69-4.61 3.28-1.51 7.13-1.51 3.84 0 7.15 1.51 3.32 1.52 5.75 4.61 2.43 3.1 3.81 7.82 1.37 4.73 1.37 11.19Zm-8.67 0q0-5.34-.78-8.84t-2.09-5.58q-1.31-2.07-3.01-2.91-1.7-.83-3.53-.83-1.81 0-3.49.83-1.68.84-2.97 2.91-1.3 2.08-2.06 5.58-.77 3.5-.77 8.84t.77 8.84q.76 3.5 2.06 5.57 1.29 2.08 2.97 2.91 1.68.83 3.49.83 1.83 0 3.53-.83 1.7-.83 3.01-2.91 1.31-2.07 2.09-5.57.78-3.5.78-8.84Z"/></svg>