<svg xmlns="http://www.w3.org/2000/svg" width="1300" height="590" viewBox="0 0 1300 590"><rect width="100%" height="100%" fill="#DDDDDD"/><path fill="#999999" d="M314.055 336.16h19.89v14.15h-61.2v-14.15h22.41v-64.49q0-3.83.23-7.88l-15.91 13.31q-1.38 1.07-2.72 1.34-1.33.27-2.52.04t-2.1-.81q-.92-.57-1.38-1.26l-5.97-8.18 33.74-28.69h15.53v96.62Zm47.66-63.88-9.95-1.76q1.15-7.96 4.44-13.96 3.29-6.01 8.22-10.02 4.94-4.02 11.33-6.05 6.38-2.02 13.73-2.02 7.65 0 13.81 2.18 6.15 2.18 10.51 6.04 4.36 3.86 6.7 9.07 2.33 5.2 2.33 11.24 0 5.28-1.18 9.3-1.19 4.01-3.41 7-2.22 2.98-5.51 5.05-3.29 2.06-7.42 3.44 9.95 3.13 14.84 9.56 4.9 6.43 4.9 16.14 0 8.26-3.06 14.61t-8.26 10.67q-5.2 4.33-12.05 6.55-6.85 2.21-14.5 2.21-8.34 0-14.53-1.91-6.2-1.91-10.79-5.66-4.59-3.75-7.8-9.18-3.22-5.43-5.51-12.55l8.34-3.44q3.29-1.37 6.16-.72 2.87.65 4.17 3.09 1.37 2.68 3.02 5.28 1.64 2.6 3.94 4.63 2.29 2.03 5.39 3.29 3.1 1.26 7.38 1.26 4.82 0 8.42-1.57 3.59-1.56 6-4.09 2.41-2.52 3.6-5.62 1.18-3.1 1.18-6.24 0-3.97-.84-7.23-.84-3.25-3.52-5.54-2.67-2.3-7.68-3.6-5.02-1.3-13.43-1.3v-13.46q6.96-.08 11.55-1.3 4.59-1.23 7.31-3.41 2.71-2.18 3.78-5.24 1.08-3.06 1.08-6.73 0-7.8-4.37-11.86-4.36-4.05-11.62-4.05-3.37 0-6.2.96-2.83.95-5.09 2.67-2.25 1.72-3.78 4.02-1.53 2.29-2.3 5.05-1.3 3.52-3.4 4.66-2.11 1.15-5.93.54ZM517.165 295q0 14.46-3.1 25.13-3.1 10.67-8.57 17.63-5.47 6.97-12.93 10.37-7.46 3.4-16.1 3.4-8.65 0-16.03-3.4-7.38-3.4-12.81-10.37-5.43-6.96-8.49-17.63-3.06-10.67-3.06-25.13 0-14.53 3.06-25.17 3.06-10.63 8.49-17.59 5.43-6.96 12.81-10.37 7.38-3.4 16.03-3.4 8.64 0 16.1 3.4 7.46 3.41 12.93 10.37 5.47 6.96 8.57 17.59 3.1 10.64 3.1 25.17Zm-19.51 0q0-12.01-1.76-19.89-1.76-7.88-4.71-12.55-2.94-4.66-6.77-6.54-3.82-1.87-7.95-1.87-4.06 0-7.84 1.87-3.79 1.88-6.7 6.54-2.9 4.67-4.63 12.55-1.72 7.88-1.72 19.89 0 12.01 1.72 19.89 1.73 7.88 4.63 12.55 2.91 4.66 6.7 6.54 3.78 1.87 7.84 1.87 4.13 0 7.95-1.87 3.83-1.88 6.77-6.54 2.95-4.67 4.71-12.55 1.76-7.88 1.76-19.89Zm108.25 0q0 14.46-3.1 25.13-3.1 10.67-8.57 17.63-5.47 6.97-12.93 10.37-7.46 3.4-16.1 3.4-8.65 0-16.03-3.4-7.38-3.4-12.81-10.37-5.43-6.96-8.49-17.63-3.06-10.67-3.06-25.13 0-14.53 3.06-25.17 3.06-10.63 8.49-17.59 5.43-6.96 12.81-10.37 7.38-3.4 16.03-3.4 8.64 0 16.1 3.4 7.46 3.41 12.93 10.37 5.47 6.96 8.57 17.59 3.1 10.64 3.1 25.17Zm-19.51 0q0-12.01-1.76-19.89-1.76-7.88-4.71-12.55-2.94-4.66-6.77-6.54-3.82-1.87-7.95-1.87-4.06 0-7.84 1.87-3.79 1.88-6.7 6.54-2.9 4.67-4.63 12.55-1.72 7.88-1.72 19.89 0 12.01 1.72 19.89 1.73 7.88 4.63 12.55 2.91 4.66 6.7 6.54 3.78 1.87 7.84 1.87 4.13 0 7.95-1.87 3.83-1.88 6.77-6.54 2.95-4.67 4.71-12.55 1.76-7.88 1.76-19.89Zm140.99 29.99-10.02 9.87-25.94-25.94-26.16 26.09-10.02-9.87 26.16-26.24-24.94-24.94 9.95-9.94 24.94 24.94 24.78-24.79 10.1 9.95-24.86 24.86 26.01 26.01Zm80.4-68.16-3.9 23.02q3.67-.76 7.04-1.11 3.36-.34 6.5-.34 8.72 0 15.37 2.6 6.66 2.6 11.17 7.19 4.52 4.59 6.81 10.75 2.3 6.16 2.3 13.27 0 8.8-3.1 16.07t-8.61 12.43q-5.51 5.16-13.04 7.99-7.54 2.83-16.41 2.83-5.2 0-9.87-1.07-4.66-1.07-8.76-2.87-4.09-1.79-7.57-4.13-3.48-2.33-6.24-4.93l5.82-8.03q1.83-2.6 4.82-2.6 1.91 0 3.9 1.22t4.55 2.68q2.56 1.45 6.04 2.67 3.49 1.23 8.38 1.23 5.2 0 9.18-1.68 3.98-1.69 6.62-4.71t3.98-7.19q1.34-4.17 1.34-9.07 0-9.02-5.24-14.11t-15.5-5.09q-7.88 0-16.14 2.91l-11.78-3.37 9.18-53.7h54.62v8.03q0 4.06-2.52 6.58-2.53 2.53-8.57 2.53h-30.37Zm79.02 16.06q0 9.26 4.79 14.12 4.78 4.85 13.57 4.85 4.59 0 8.19-1.45 3.59-1.45 6.04-3.98 2.45-2.52 3.71-5.96 1.27-3.45 1.27-7.43 0-4.51-1.38-8.07-1.38-3.55-3.9-6-2.53-2.45-6.01-3.75-3.48-1.3-7.61-1.3-4.28 0-7.73 1.42-3.44 1.41-5.89 3.94-2.45 2.52-3.75 6-1.3 3.48-1.3 7.61Zm-9.25 77.42 34.35-42.92q1.3-1.6 2.44-3.13 1.15-1.53 2.22-3.06-3.82 2.45-8.41 3.71-4.59 1.26-9.64 1.26-5.74 0-11.25-1.99t-9.79-6q-4.28-4.02-6.92-9.95-2.64-5.93-2.64-13.88 0-7.43 2.75-13.93 2.76-6.5 7.73-11.4 4.97-4.89 11.93-7.72t15.38-2.83q8.49 0 15.26 2.67 6.77 2.68 11.55 7.5 4.78 4.82 7.35 11.55 2.56 6.73 2.56 14.77 0 5.12-.88 9.71-.88 4.59-2.49 8.84-1.6 4.24-3.9 8.3-2.29 4.05-5.12 8.03l-25.32 36.11q-1.31 1.84-3.91 3.1t-5.89 1.26h-17.36Zm157.66-55.31q0 14.46-3.09 25.13-3.1 10.67-8.57 17.63-5.47 6.97-12.93 10.37-7.46 3.4-16.1 3.4-8.65 0-16.03-3.4-7.38-3.4-12.81-10.37-5.44-6.96-8.5-17.63-3.06-10.67-3.06-25.13 0-14.53 3.06-25.17 3.06-10.63 8.5-17.59 5.43-6.96 12.81-10.37 7.38-3.4 16.03-3.4 8.64 0 16.1 3.4 7.46 3.41 12.93 10.37 5.47 6.96 8.57 17.59 3.09 10.64 3.09 25.17Zm-19.5 0q0-12.01-1.76-19.89-1.76-7.88-4.71-12.55-2.94-4.66-6.77-6.54-3.82-1.87-7.95-1.87-4.06 0-7.85 1.87-3.78 1.88-6.69 6.54-2.91 4.67-4.63 12.55-1.72 7.88-1.72 19.89 0 12.01 1.72 19.89 1.72 7.88 4.63 12.55 2.91 4.66 6.69 6.54 3.79 1.87 7.85 1.87 4.13 0 7.95-1.87 3.83-1.88 6.77-6.54 2.95-4.67 4.71-12.55 1.76-7.88 1.76-19.89Z"/></svg>