<svg xmlns="http://www.w3.org/2000/svg" width="847" height="345" viewBox="0 0 847 345"><rect width="100%" height="100%" fill="#DDDDDD"/><path fill="#999999" d="M202.325 203.075q3.42 0 6-.98 2.57-.98 4.34-2.72 1.76-1.73 2.66-4.14.89-2.41.89-5.21 0-6.66-3.69-10.08-3.7-3.42-10.2-3.42-6.49 0-10.19 3.42-3.69 3.42-3.69 10.08 0 2.8.89 5.21.9 2.41 2.66 4.14 1.77 1.74 4.34 2.72 2.58.98 5.99.98Zm0-61.55q-3.08 0-5.32.96-2.24.95-3.72 2.54-1.48 1.6-2.18 3.67-.7 2.07-.7 4.37 0 2.41.58 4.68.59 2.26 1.99 4.03 1.4 1.76 3.7 2.83 2.29 1.06 5.65 1.06 3.36 0 5.66-1.06 2.3-1.07 3.7-2.83 1.4-1.77 1.98-4.03.59-2.27.59-4.68 0-2.3-.73-4.37-.72-2.07-2.18-3.67-1.46-1.59-3.7-2.54-2.24-.96-5.32-.96Zm13.67 29.24q7.39 2.4 10.92 7.36 3.53 4.96 3.53 12.12 0 5.38-2.05 9.75-2.04 4.37-5.74 7.45-3.69 3.08-8.87 4.76-5.18 1.68-11.46 1.68-6.27 0-11.45-1.68t-8.87-4.76q-3.7-3.08-5.74-7.45-2.05-4.37-2.05-9.75 0-7.16 3.53-12.12 3.53-4.96 10.92-7.36-5.88-2.47-8.82-7-2.94-4.54-2.94-10.92 0-4.6 1.88-8.57 1.87-3.98 5.23-6.92 3.36-2.94 8.04-4.59 4.67-1.65 10.27-1.65t10.28 1.65q4.68 1.65 8.04 4.59 3.36 2.94 5.23 6.92 1.88 3.97 1.88 8.57 0 6.38-2.94 10.92-2.94 4.53-8.82 7Zm34.05 11.7h24.64v-26.49q0-3.75.5-8.29l-25.14 34.78Zm36.68 0h10.19v8.01q0 1.12-.73 1.93-.73.81-2.07.81h-7.39v19.77h-12.04v-19.77h-34.16q-1.4 0-2.47-.87-1.06-.86-1.34-2.15l-1.46-7 38.36-51.24h13.11v50.51Zm18.25-50.46h55.95v6q0 2.68-.56 4.34-.56 1.65-1.12 2.77l-30.69 63.17q-.95 1.96-2.69 3.33t-4.65 1.37h-10.02l31.3-61.88q1.07-1.9 2.1-3.5 1.04-1.6 2.33-3.05h-38.76q-1.28 0-2.24-.95-.95-.96-.95-2.24v-9.36Zm145.88 62.44-7.33 7.23-18.99-18.99-19.15 19.1-7.34-7.22 19.16-19.21-18.26-18.26 7.28-7.28 18.26 18.26 18.14-18.15 7.39 7.28-18.2 18.2 19.04 19.04Zm46.59-38.58-7.28-1.29q.84-5.82 3.25-10.22 2.41-4.39 6.02-7.33 3.61-2.94 8.29-4.43 4.68-1.48 10.05-1.48 5.6 0 10.11 1.59 4.51 1.6 7.7 4.43 3.19 2.83 4.9 6.63 1.71 3.81 1.71 8.24 0 3.86-.87 6.8t-2.49 5.12q-1.63 2.19-4.03 3.7-2.41 1.51-5.44 2.52 7.28 2.3 10.87 7 3.58 4.7 3.58 11.82 0 6.04-2.24 10.69-2.24 4.65-6.05 7.81-3.8 3.17-8.82 4.79-5.01 1.63-10.61 1.63-6.1 0-10.64-1.4-4.53-1.4-7.89-4.15-3.36-2.74-5.72-6.72-2.35-3.97-4.03-9.18l6.11-2.52q2.4-1.01 4.5-.53 2.1.47 3.06 2.26 1 1.96 2.21 3.87 1.2 1.9 2.88 3.39 1.68 1.48 3.95 2.4 2.27.93 5.4.93 3.53 0 6.16-1.15 2.64-1.15 4.4-3 1.76-1.84 2.63-4.11.87-2.27.87-4.57 0-2.91-.62-5.29-.61-2.38-2.57-4.06-1.96-1.68-5.63-2.63t-9.83-.95v-9.86q5.1-.05 8.46-.95 3.36-.9 5.35-2.49 1.98-1.6 2.77-3.84.78-2.24.78-4.93 0-5.71-3.19-8.68-3.19-2.96-8.51-2.96-2.47 0-4.54.7t-3.72 1.96q-1.65 1.26-2.77 2.94t-1.68 3.69q-.96 2.58-2.5 3.42-1.54.84-4.34.39Zm66.87 26.6h24.64v-26.49q0-3.75.5-8.29l-25.14 34.78Zm36.68 0h10.19v8.01q0 1.12-.73 1.93-.73.81-2.07.81h-7.39v19.77h-12.04v-19.77h-34.16q-1.4 0-2.47-.87-1.06-.86-1.34-2.15l-1.46-7 38.36-51.24h13.11v50.51Zm38.64-37.91-2.86 16.85q2.69-.56 5.15-.81 2.47-.25 4.76-.25 6.39 0 11.26 1.9 4.87 1.91 8.18 5.27 3.3 3.36 4.98 7.87 1.68 4.5 1.68 9.71 0 6.44-2.27 11.76-2.27 5.32-6.3 9.1-4.03 3.78-9.55 5.85-5.51 2.08-12.01 2.08-3.81 0-7.22-.79-3.42-.78-6.41-2.1-3-1.31-5.55-3.02t-4.56-3.61l4.25-5.88q1.35-1.91 3.53-1.91 1.4 0 2.86.9 1.45.89 3.33 1.96 1.88 1.06 4.42 1.96 2.55.89 6.14.89 3.8 0 6.72-1.23 2.91-1.23 4.84-3.44 1.93-2.21 2.91-5.27.98-3.05.98-6.63 0-6.61-3.83-10.33-3.84-3.73-11.34-3.73-5.77 0-11.82 2.13l-8.62-2.46 6.72-39.32h39.98v5.88q0 2.97-1.85 4.82t-6.27 1.85h-22.23Z"/></svg>