<svg xmlns="http://www.w3.org/2000/svg" width="494" height="200" viewBox="0 0 494 200"><rect width="100%" height="100%" fill="#DDDDDD"/><path fill="#999999" d="M106.65 105.88h14.52V90.27q0-2.21.29-4.89l-14.81 20.5Zm21.61 0h6.01v4.71q0 .66-.43 1.14-.43.48-1.22.48h-4.36v11.65h-7.09v-11.65h-20.13q-.83 0-1.45-.51-.63-.51-.8-1.27l-.85-4.13 22.6-30.19h7.72v29.77Zm18.58-15.42q0 4 2.06 6.09 2.07 2.1 5.86 2.1 1.98 0 3.53-.63 1.55-.63 2.61-1.71 1.06-1.09 1.6-2.58.54-1.48.54-3.2 0-1.95-.59-3.48-.59-1.54-1.68-2.59-1.09-1.06-2.59-1.62-1.5-.56-3.29-.56-1.84 0-3.33.61-1.48.61-2.54 1.7-1.06 1.09-1.62 2.59-.56 1.5-.56 3.28Zm-3.99 33.4 14.82-18.51q.56-.7 1.05-1.36.5-.66.96-1.32-1.65 1.06-3.63 1.6-1.98.55-4.16.55-2.47 0-4.85-.86-2.38-.86-4.22-2.59-1.85-1.73-2.99-4.29-1.14-2.56-1.14-5.99 0-3.2 1.19-6 1.19-2.81 3.33-4.92 2.15-2.11 5.15-3.34 3-1.22 6.63-1.22 3.67 0 6.59 1.16 2.92 1.15 4.98 3.23 2.06 2.08 3.17 4.99 1.1 2.9 1.1 6.36 0 2.22-.38 4.2t-1.07 3.81q-.69 1.83-1.68 3.58t-2.21 3.46l-10.93 15.58q-.56.79-1.68 1.34-1.12.54-2.54.54h-7.49Zm40.36-17.98h14.52V90.27q0-2.21.29-4.89l-14.81 20.5Zm21.61 0h6.01v4.71q0 .66-.43 1.14-.43.48-1.22.48h-4.36v11.65h-7.09v-11.65H177.6q-.83 0-1.45-.51-.63-.51-.8-1.27l-.85-4.13 22.6-30.19h7.72v29.77Zm58.45 7.06-4.33 4.25-11.18-11.18-11.29 11.25-4.32-4.26 11.28-11.32-10.76-10.75 4.29-4.29 10.76 10.75 10.69-10.69 4.36 4.29-10.72 10.73 11.22 11.22Zm39.73 3.33h12.24q1.32 0 2.1.74.77.74.77 1.97v4.88h-32.73v-2.71q0-.82.34-1.73.35-.91 1.11-1.63l14.48-14.52q1.82-1.85 3.26-3.53 1.43-1.69 2.39-3.34.95-1.65 1.47-3.35.51-1.7.51-3.58 0-1.71-.5-3.02-.49-1.3-1.4-2.19-.91-.89-2.18-1.34-1.27-.44-2.85-.44-1.45 0-2.69.41t-2.2 1.16q-.95.74-1.61 1.73-.66.99-.99 2.18-.56 1.51-1.46 2.01-.89.49-2.57.23l-4.29-.76q.5-3.43 1.91-6.02 1.42-2.59 3.55-4.32 2.13-1.74 4.89-2.61 2.75-.88 5.92-.88 3.3 0 6.04.98 2.74.97 4.68 2.75 1.95 1.79 3.04 4.29 1.09 2.51 1.09 5.58 0 2.64-.78 4.88-.77 2.25-2.07 4.29-1.31 2.05-3.06 3.96-1.75 1.92-3.66 3.9l-10.76 10.99q1.55-.47 3.09-.71 1.53-.25 2.92-.25ZM357.78 100q0 6.24-1.34 10.84t-3.69 7.61q-2.36 3-5.58 4.47-3.22 1.47-6.95 1.47t-6.91-1.47q-3.19-1.47-5.53-4.47-2.34-3.01-3.66-7.61-1.32-4.6-1.32-10.84 0-6.27 1.32-10.86 1.32-4.58 3.66-7.59 2.34-3 5.53-4.47 3.18-1.47 6.91-1.47t6.95 1.47q3.22 1.47 5.58 4.47 2.35 3.01 3.69 7.59 1.34 4.59 1.34 10.86Zm-8.42 0q0-5.18-.76-8.58-.76-3.4-2.03-5.41-1.27-2.01-2.92-2.82t-3.43-.81q-1.75 0-3.38.81t-2.89 2.82q-1.25 2.01-1.99 5.41-.75 3.4-.75 8.58t.75 8.58q.74 3.4 1.99 5.41 1.26 2.02 2.89 2.82 1.63.81 3.38.81 1.78 0 3.43-.81 1.65-.8 2.92-2.82 1.27-2.01 2.03-5.41.76-3.4.76-8.58Zm46.7 0q0 6.24-1.34 10.84t-3.69 7.61q-2.36 3-5.58 4.47-3.22 1.47-6.95 1.47t-6.91-1.47q-3.19-1.47-5.53-4.47-2.34-3.01-3.66-7.61-1.32-4.6-1.32-10.84 0-6.27 1.32-10.86 1.32-4.58 3.66-7.59 2.34-3 5.53-4.47 3.18-1.47 6.91-1.47t6.95 1.47q3.22 1.47 5.58 4.47 2.35 3.01 3.69 7.59 1.34 4.59 1.34 10.86Zm-8.42 0q0-5.18-.76-8.58-.76-3.4-2.03-5.41-1.27-2.01-2.92-2.82t-3.43-.81q-1.75 0-3.38.81t-2.89 2.82q-1.25 2.01-1.99 5.41-.75 3.4-.75 8.58t.75 8.58q.74 3.4 1.99 5.41 1.26 2.02 2.89 2.82 1.63.81 3.38.81 1.78 0 3.43-.81 1.65-.8 2.92-2.82 1.27-2.01 2.03-5.41.76-3.4.76-8.58Z"/></svg>