<svg xmlns="http://www.w3.org/2000/svg" width="403" height="345" viewBox="0 0 403 345"><rect width="100%" height="100%" fill="#DDDDDD"/><path fill="#999999" d="M87.49 177.31h11.88v-12.78q0-1.8.25-3.99l-12.13 16.77Zm17.69 0h4.91v3.86q0 .54-.35.93t-1 .39h-3.56v9.53h-5.81v-9.53H82.9q-.67 0-1.19-.42-.51-.42-.64-1.04l-.71-3.37 18.5-24.71h6.32v24.36Zm36.26-4.81q0 5.1-1.1 8.87-1.09 3.77-3.02 6.22-1.93 2.46-4.56 3.66-2.64 1.2-5.69 1.2-3.05 0-5.65-1.2-2.61-1.2-4.53-3.66-1.91-2.45-2.99-6.22-1.08-3.77-1.08-8.87 0-5.13 1.08-8.88 1.08-3.76 2.99-6.21 1.92-2.46 4.53-3.66 2.6-1.2 5.65-1.2 3.05 0 5.69 1.2 2.63 1.2 4.56 3.66 1.93 2.45 3.02 6.21 1.1 3.75 1.1 8.88Zm-6.89 0q0-4.24-.62-7.02-.62-2.78-1.66-4.43t-2.39-2.31q-1.35-.66-2.81-.66-1.43 0-2.76.66-1.34.66-2.37 2.31-1.02 1.65-1.63 4.43-.61 2.78-.61 7.02t.61 7.02q.61 2.78 1.63 4.43 1.03 1.64 2.37 2.31 1.33.66 2.76.66 1.46 0 2.81-.66 1.35-.67 2.39-2.31 1.04-1.65 1.66-4.43.62-2.78.62-7.02Zm14.66-8.02-3.51-.62q.41-2.81 1.57-4.93 1.16-2.12 2.9-3.54 1.74-1.41 4-2.13 2.25-.71 4.84-.71 2.71 0 4.88.77 2.17.76 3.71 2.13 1.54 1.36 2.36 3.2.83 1.83.83 3.97 0 1.86-.42 3.28-.42 1.42-1.2 2.47-.79 1.05-1.95 1.78t-2.62 1.21q3.51 1.11 5.24 3.38 1.73 2.27 1.73 5.7 0 2.91-1.08 5.15-1.08 2.25-2.92 3.77-1.83 1.53-4.25 2.31-2.41.78-5.11.78-2.95 0-5.13-.67-2.19-.68-3.81-2-1.62-1.32-2.76-3.24-1.13-1.92-1.94-4.43l2.94-1.21q1.16-.49 2.18-.26 1.01.23 1.47 1.09.48.95 1.06 1.87.59.91 1.4 1.63.81.71 1.9 1.16 1.09.45 2.6.45 1.71 0 2.97-.56 1.27-.55 2.12-1.44.85-.89 1.27-1.99.42-1.09.42-2.2 0-1.4-.3-2.55-.29-1.15-1.24-1.96-.94-.81-2.71-1.26-1.77-.46-4.74-.46v-4.76q2.46-.02 4.08-.46 1.62-.43 2.58-1.2.95-.77 1.33-1.85.38-1.08.38-2.37 0-2.76-1.54-4.19-1.54-1.43-4.1-1.43-1.19 0-2.19.34t-1.8.94q-.79.61-1.33 1.42-.54.81-.81 1.78-.46 1.25-1.2 1.65-.75.41-2.1.19Zm66.42 18.6-3.53 3.49-9.16-9.16-9.23 9.21-3.54-3.48 9.24-9.26-8.8-8.81 3.51-3.51 8.8 8.81 8.75-8.75 3.56 3.51-8.78 8.77 9.18 9.18Zm22.47-18.6-3.51-.62q.4-2.81 1.56-4.93 1.17-2.12 2.91-3.54 1.74-1.41 3.99-2.13 2.26-.71 4.85-.71 2.7 0 4.87.77 2.18.76 3.71 2.13 1.54 1.36 2.37 3.2.82 1.83.82 3.97 0 1.86-.42 3.28-.42 1.42-1.2 2.47-.78 1.05-1.94 1.78t-2.62 1.21q3.51 1.11 5.24 3.38 1.72 2.27 1.72 5.7 0 2.91-1.08 5.15-1.08 2.25-2.91 3.77-1.84 1.53-4.25 2.31-2.42.78-5.12.78-2.94 0-5.13-.67-2.19-.68-3.81-2-1.62-1.32-2.75-3.24-1.14-1.92-1.95-4.43l2.95-1.21q1.16-.49 2.17-.26 1.01.23 1.47 1.09.49.95 1.07 1.87.58.91 1.39 1.63.81.71 1.9 1.16 1.1.45 2.61.45 1.7 0 2.97-.56 1.27-.55 2.12-1.44.85-.89 1.27-1.99.42-1.09.42-2.2 0-1.4-.3-2.55t-1.24-1.96q-.95-.81-2.72-1.26-1.77-.46-4.74-.46v-4.76q2.46-.02 4.08-.46 1.62-.43 2.58-1.2t1.34-1.85q.37-1.08.37-2.37 0-2.76-1.54-4.19-1.53-1.43-4.1-1.43-1.19 0-2.19.34-.99.34-1.79.94-.8.61-1.34 1.42-.54.81-.81 1.78-.46 1.25-1.2 1.65-.74.41-2.09.19Zm32.24 12.83h11.88v-12.78q0-1.8.24-3.99l-12.12 16.77Zm17.68 0h4.92v3.86q0 .54-.36.93-.35.39-.99.39h-3.57v9.53h-5.8v-9.53h-16.47q-.68 0-1.19-.42-.51-.42-.65-1.04l-.7-3.37 18.49-24.71h6.32v24.36Zm18.63-18.28-1.38 8.12q1.3-.27 2.49-.39 1.19-.12 2.29-.12 3.08 0 5.43.92 2.35.92 3.94 2.54 1.6 1.62 2.41 3.79t.81 4.68q0 3.11-1.1 5.67-1.09 2.57-3.04 4.39-1.94 1.82-4.6 2.82-2.66 1-5.79 1-1.84 0-3.48-.38-1.65-.37-3.1-1.01-1.44-.63-2.67-1.46-1.23-.82-2.2-1.74l2.05-2.83q.65-.92 1.7-.92.68 0 1.38.43.7.43 1.61.95.9.51 2.13.94 1.23.43 2.96.43 1.83 0 3.24-.59 1.4-.59 2.33-1.66.93-1.07 1.41-2.54.47-1.47.47-3.2 0-3.19-1.85-4.98-1.85-1.8-5.47-1.8-2.78 0-5.7 1.03l-4.15-1.19 3.24-18.95h19.27v2.83q0 1.43-.89 2.33-.89.89-3.02.89h-10.72Z"/></svg>