<svg xmlns="http://www.w3.org/2000/svg" width="318" height="402" viewBox="0 0 318 402"><rect width="100%" height="100%" fill="#DDDDDD"/><path fill="#999999" d="m68.805 194.76-2.73-.48q.32-2.19 1.22-3.84.9-1.64 2.26-2.75 1.35-1.1 3.11-1.66 1.75-.55 3.76-.55 2.1 0 3.8.6 1.69.59 2.88 1.66 1.2 1.06 1.84 2.48.64 1.43.64 3.09 0 1.45-.32 2.55-.33 1.11-.94 1.92-.61.82-1.51 1.39t-2.04.94q2.73.87 4.08 2.63 1.34 1.76 1.34 4.43 0 2.27-.84 4.01-.84 1.74-2.27 2.93-1.43 1.19-3.31 1.8-1.88.61-3.98.61-2.28 0-3.99-.53-1.7-.52-2.96-1.55t-2.14-2.52q-.88-1.49-1.51-3.45l2.29-.94q.9-.38 1.69-.2.79.18 1.14.85.38.73.83 1.45.45.71 1.08 1.27.63.55 1.49.9.85.35 2.02.35 1.32 0 2.31-.43t1.65-1.13q.66-.69.99-1.54.32-.85.32-1.71 0-1.09-.23-1.99-.23-.89-.96-1.52-.74-.63-2.11-.99-1.38-.35-3.69-.35v-3.7q1.91-.02 3.17-.36 1.26-.33 2.01-.93.74-.6 1.04-1.44.29-.84.29-1.85 0-2.14-1.2-3.25-1.19-1.11-3.19-1.11-.92 0-1.7.26-.78.26-1.4.73-.62.48-1.04 1.11-.42.63-.63 1.38-.35.97-.93 1.28-.58.32-1.63.15Zm35.64 17.53h5.46v3.89h-16.8v-3.89h6.15v-17.7q0-1.05.06-2.16l-4.36 3.65q-.38.3-.75.37t-.69.01q-.33-.06-.58-.22-.25-.16-.38-.35l-1.64-2.24 9.27-7.88h4.26v26.52Zm20.26.17q1.28 0 2.25-.36.97-.37 1.63-1.02.66-.65 1-1.56.33-.9.33-1.95 0-2.5-1.38-3.78-1.39-1.28-3.83-1.28-2.43 0-3.82 1.28-1.38 1.28-1.38 3.78 0 1.05.33 1.95.34.91 1 1.56.66.65 1.63 1.02.96.36 2.24.36Zm0-23.08q-1.15 0-1.99.36-.84.36-1.4.96-.55.59-.82 1.37-.26.78-.26 1.64 0 .9.22 1.75t.75 1.52q.52.66 1.38 1.06.86.39 2.12.39 1.26 0 2.12-.39.87-.4 1.39-1.06.53-.67.75-1.52.22-.85.22-1.75 0-.86-.28-1.64-.27-.78-.82-1.37-.54-.6-1.38-.96-.84-.36-2-.36Zm5.13 10.97q2.77.9 4.09 2.76 1.33 1.86 1.33 4.54 0 2.02-.77 3.66-.77 1.64-2.15 2.79-1.39 1.16-3.33 1.79-1.94.63-4.3.63-2.35 0-4.29-.63t-3.33-1.79q-1.39-1.15-2.15-2.79-.77-1.64-.77-3.66 0-2.68 1.32-4.54 1.33-1.86 4.1-2.76-2.21-.93-3.31-2.63-1.1-1.7-1.1-4.09 0-1.73.7-3.22.71-1.49 1.97-2.59 1.26-1.1 3.01-1.72 1.75-.62 3.85-.62t3.86.62q1.75.62 3.01 1.72 1.26 1.1 1.96 2.59.71 1.49.71 3.22 0 2.39-1.1 4.09-1.11 1.7-3.31 2.63Zm39.35 8.88-2.75 2.71-7.12-7.12-7.18 7.16-2.75-2.71 7.18-7.2-6.85-6.85 2.73-2.73 6.85 6.85 6.8-6.81 2.78 2.73-6.83 6.83 7.14 7.14Zm18.19-4.5h9.24v-9.93q0-1.41.19-3.11l-9.43 13.04Zm13.75 0h3.82v3.01q0 .42-.27.72-.27.31-.78.31h-2.77v7.41h-4.51v-7.41h-12.81q-.53 0-.93-.33-.4-.32-.5-.81l-.55-2.62 14.39-19.22h4.91v18.94Zm28.21-3.73q0 3.97-.85 6.9-.86 2.92-2.36 4.84-1.5 1.91-3.55 2.84-2.04.94-4.42.94-2.37 0-4.4-.94-2.02-.93-3.51-2.84-1.49-1.92-2.33-4.84-.84-2.93-.84-6.9 0-3.99.84-6.91t2.33-4.83q1.49-1.91 3.51-2.85 2.03-.93 4.4-.93 2.38 0 4.42.93 2.05.94 3.55 2.85 1.5 1.91 2.36 4.83.85 2.92.85 6.91Zm-5.36 0q0-3.3-.48-5.46-.49-2.17-1.29-3.45-.81-1.28-1.86-1.79-1.05-.52-2.19-.52-1.11 0-2.15.52-1.04.51-1.84 1.79-.79 1.28-1.27 3.45-.47 2.16-.47 5.46 0 3.29.47 5.46.48 2.16 1.27 3.44.8 1.28 1.84 1.8 1.04.51 2.15.51 1.14 0 2.19-.51 1.05-.52 1.86-1.8.8-1.28 1.29-3.44.48-2.17.48-5.46Zm19.22 10.35h7.79q.84 0 1.33.47.49.47.49 1.25v3.11h-20.83v-1.72q0-.53.22-1.1.22-.58.71-1.04l9.21-9.24q1.16-1.18 2.07-2.25.92-1.07 1.53-2.12t.93-2.13q.33-1.09.33-2.28 0-1.09-.32-1.92-.31-.83-.89-1.4-.58-.57-1.39-.85-.81-.28-1.81-.28-.93 0-1.72.26-.78.26-1.39.73-.61.48-1.03 1.11-.42.63-.63 1.38-.36.97-.93 1.28-.56.32-1.63.15l-2.73-.48q.31-2.19 1.21-3.84.91-1.64 2.26-2.75 1.36-1.1 3.11-1.66 1.75-.55 3.77-.55 2.1 0 3.84.62 1.75.62 2.99 1.75 1.23 1.13 1.93 2.73.69 1.6.69 3.55 0 1.68-.49 3.11-.5 1.43-1.33 2.73-.83 1.3-1.94 2.52-1.11 1.22-2.33 2.48l-6.85 6.99q.99-.3 1.97-.45.97-.16 1.86-.16Z"/></svg>