<svg xmlns="http://www.w3.org/2000/svg" width="37" height="35.002" viewBox="0 0 37 35.002" class="svg replaced-svg">
  <path id="f1" d="M1.963,24.412H8.238A1.967,1.967,0,0,1,10.2,26.378v7.227h2.347A5.4,5.4,0,0,1,12.4,31.92h0a15.773,15.773,0,0,1,1.483-6.895,7.4,7.4,0,0,1,2.3-2.771,5.031,5.031,0,0,1-1.345-3.562,4.6,4.6,0,1,1,9.2,0,.542.542,0,0,1-.542.542h-.368a3.822,3.822,0,0,1,.052.625,3.765,3.765,0,0,1-3.024,3.689,9.148,9.148,0,0,1,.27,2.359l1.352,1.164,3.289.266,3.794-1.255a1.148,1.148,0,0,1,1.084,0,.964.964,0,0,1,.337.809v2.823a.542.542,0,0,1-.542.542H29.09l.99,3.422a.542.542,0,1,1-1.041.3l-1.077-3.724H26.42c1.916,5.849.823,9.752-.858,13.7h.974l4.058-4.541-.858-2.966a.542.542,0,1,1,1.041-.3L31.6,38.99a5.453,5.453,0,0,1,5.388,4.229.542.542,0,0,1-.407.65l-.769.177a4.155,4.155,0,0,1-4.136,4.55,4.153,4.153,0,0,1-3.879-2.7l-.607.14A.707.707,0,0,1,26.665,46a.623.623,0,0,1-.305-.416,5.4,5.4,0,0,1-.087-.54H14.937a4.618,4.618,0,0,1-9.141,0H5.282a.742.742,0,0,1-.563-.2.7.7,0,0,1-.192-.527,6.153,6.153,0,0,1,.222-1.469,8.468,8.468,0,0,1,.6-5.47,1.428,1.428,0,0,1-.647-1.2V34.69H1.964A1.967,1.967,0,0,1,0,32.724V26.378a1.967,1.967,0,0,1,1.964-1.966ZM30.057,47.043a3.038,3.038,0,0,0,2.312.39h0a3.073,3.073,0,0,0,2.374-3.139l-5.879,1.354a3.048,3.048,0,0,0,1.193,1.4Zm-2.712-2.16,8.431-1.941A4.365,4.365,0,0,0,31.46,40.08L27.33,44.7Q27.336,44.792,27.345,44.883Zm-8.187-9.452a4.832,4.832,0,0,1,.157,1.636v2.047H21.3V36.306c0-3.175-1.731-3.74-2.508-3.834H13.478a2.3,2.3,0,0,0,.492,1.558,2.515,2.515,0,0,0,1.88.564l1.945,0a1.306,1.306,0,0,1,1.362.835Zm.157,4.767v1.3H23.18a1.546,1.546,0,0,0-.374-.928,1.337,1.337,0,0,0-.965-.368ZM13.5,31.387h4.929a20.264,20.264,0,0,0,.52-2.007l-1.5-.973a2.239,2.239,0,0,1-1.168-2.061,1.917,1.917,0,0,1,1.194-1.57,1.955,1.955,0,0,1,1.819.2,6.408,6.408,0,0,0-.262-1.375,3.818,3.818,0,0,1-.686-.135,4.488,4.488,0,0,1-1.265-.5C16.041,23.588,13.745,25.613,13.5,31.387ZM22.909,18.15a3.509,3.509,0,0,0-6.988.542,3.684,3.684,0,0,0,2.026,3.5V19.335a1.079,1.079,0,0,1,1.089-1.182l.049,0Zm-.819,1.71a2.7,2.7,0,0,0-.072-.625H19.111c-.033,0-.058.008-.075.011a.645.645,0,0,0-.005.089v3.173a2.68,2.68,0,0,0,.389.029h0a2.676,2.676,0,0,0,2.667-2.677Zm.7,8.383-1.284-.1a.542.542,0,0,1-.31-.129l-2.317-1.994h0a1.076,1.076,0,0,0-.7-.292.834.834,0,0,0-.823.728,1.2,1.2,0,0,0,.679,1.046l2.582,1.677h2.169v-.93Zm2.291.185-1.207-.1v.843h1.4c.182,0,.226-.151.231-.278A.431.431,0,0,0,25.084,28.429Zm1.283-.374a1.568,1.568,0,0,1,.2,1.115s0,0,0,0h2.626V27.115l-2.828.936Zm-1.09,2.2H20.463a.542.542,0,0,1-.3-.087l-.245-.159c-.118.522-.252,1.03-.4,1.51,1.105.327,2.86,1.382,2.86,4.784v2.862a2.262,2.262,0,0,1,1.206.648,2.647,2.647,0,0,1,.678,1.677h1.093a15.962,15.962,0,0,0-.085-11.235Zm-.893,13.7c.2-.461.393-.92.575-1.381H19.33c-.729,0-1.1-.332-1.1-.988V37.609H13.953a.542.542,0,0,1,0-1.085h4.274a2.457,2.457,0,0,0-.083-.709c-.027-.072-.051-.135-.349-.135l-1.946,0a3.5,3.5,0,0,1-2.666-.9c-.027-.028-.052-.058-.077-.087H5.785v1.491a.348.348,0,0,0,.343.344h5.4a.542.542,0,0,1,0,1.085H6.446a6.407,6.407,0,0,0-.791,3.35,5.879,5.879,0,0,1,8.959-.7,5.977,5.977,0,0,1,1.7,3.7ZM10.366,47.917a3.572,3.572,0,0,0,3.469-2.871H6.9A3.572,3.572,0,0,0,10.366,47.917ZM6.282,43.962H15.23a4.863,4.863,0,0,0-4.8-4.366,4.81,4.81,0,0,0-4.612,3.449l-.006.019a5.009,5.009,0,0,0-.179.9Zm-5.2-11.238a.882.882,0,0,0,.88.881H9.118V30.8H1.084Zm0-3H9.118V28.566H1.084Zm0-2.238H9.118v-1.1a.882.882,0,0,0-.88-.881H1.963a.882.882,0,0,0-.88.881Z" transform="translate(0 -14)" fill="#fd8601"/>
</svg>