<svg xmlns="http://www.w3.org/2000/svg" width="35.503" height="35.5" viewBox="0 0 35.503 35.5" class="svg replaced-svg">
  <path id="f3" d="M-6093.343,34.585l-.031-.012a41.619,41.619,0,0,1-4.107-2.1,4.842,4.842,0,0,0-2.5-.9v.2a.684.684,0,0,1-.685.683h-1.905v.591a.683.683,0,0,1-.684.683h-4.064a.684.684,0,0,1-.685-.683v-8.62a.684.684,0,0,1,.685-.683h6.327a5.469,5.469,0,0,1,4.271-2.561,5.4,5.4,0,0,1,4.356,2l5.235,1.778.018.006a3.126,3.126,0,0,1,1.935,1.9l4.763-1.317c1.745-.6,3.222-.052,3.852,1.42a.117.117,0,0,0,.008.02,2.92,2.92,0,0,1-1.744,3.722c-.018.008-.036.016-.055.023l-10.528,3.769a5.444,5.444,0,0,1-2.265.485A6.124,6.124,0,0,1-6093.343,34.585Zm-6.636-9.883v5.507a6.145,6.145,0,0,1,3.18,1.081,39.7,39.7,0,0,0,3.97,2.028,4.431,4.431,0,0,0,3.4-.058l.027-.012.031-.012,10.523-3.768c.3-.144,1.469-.789,1.021-1.961-.435-1-1.407-.906-2.148-.653l-5.133,1.422c-.013.056-.026.111-.042.166a2.685,2.685,0,0,1-1.283,1.62,2.684,2.684,0,0,1-1.31.342,2.735,2.735,0,0,1-.742-.1l-.02-.006-6.136-1.945a.683.683,0,0,1-.445-.858.684.684,0,0,1,.859-.445l6.124,1.941a1.323,1.323,0,0,0,1-.12,1.32,1.32,0,0,0,.633-.8,1.533,1.533,0,0,0-1.115-1.81l-5.434-1.844a.683.683,0,0,1-.362-.29,3.949,3.949,0,0,0-3.347-1.571A4.222,4.222,0,0,0-6099.979,24.7Zm-6.655,7.664h2.7V25.115h-2.7Zm4.065-1.273h1.223V25.115h-1.223Zm5.562-3.5a.589.589,0,0,1-.129-.038.688.688,0,0,1-.117-.063.594.594,0,0,1-.1-.085.723.723,0,0,1-.085-.1.69.69,0,0,1-.063-.119.713.713,0,0,1-.038-.126.691.691,0,0,1-.014-.135.667.667,0,0,1,.014-.132.737.737,0,0,1,.038-.129.777.777,0,0,1,.063-.118.8.8,0,0,1,.085-.1.726.726,0,0,1,.1-.085.687.687,0,0,1,.117-.063.663.663,0,0,1,.129-.038.669.669,0,0,1,.267,0,.719.719,0,0,1,.128.038.736.736,0,0,1,.118.063.775.775,0,0,1,.1.085.606.606,0,0,1,.084.1.636.636,0,0,1,.063.118.6.6,0,0,1,.039.129.667.667,0,0,1,.014.132.691.691,0,0,1-.014.135.583.583,0,0,1-.039.126.578.578,0,0,1-.063.119.563.563,0,0,1-.084.1.626.626,0,0,1-.1.085.736.736,0,0,1-.118.063.632.632,0,0,1-.128.038.631.631,0,0,1-.134.014A.622.622,0,0,1-6097.007,27.594Zm4.248-5.805L-6105.768,8.78a.678.678,0,0,1,0-.967L-6098.155.2a.683.683,0,0,1,.967,0l2.319,2.319,2.751-.985a5.812,5.812,0,0,1,4.464-.07l.03.012a41.5,41.5,0,0,1,4.107,2.1,4.842,4.842,0,0,0,2.5.9v-.2a.683.683,0,0,1,.684-.683h1.906V3a.684.684,0,0,1,.684-.683h4.065A.683.683,0,0,1-6073,3v8.62a.683.683,0,0,1-.683.683h-6.328a5.469,5.469,0,0,1-4.27,2.561c-.194,0-.383-.008-.562-.024l-6.951,6.95a.658.658,0,0,1-.472.181A.718.718,0,0,1-6092.759,21.789Zm-1.075-3.008,1.559,1.558,1.558-1.558a2.967,2.967,0,0,0-1.558-.44A2.972,2.972,0,0,0-6093.834,18.78Zm4.1-.985,1.562-1.561a4.361,4.361,0,0,1-.723-3.465l-2.31-.783a3.88,3.88,0,0,1-1.014,1.763,3.887,3.887,0,0,1-2.756,1.14,3.884,3.884,0,0,1-2.755-1.14,3.9,3.9,0,0,1,0-5.512,3.9,3.9,0,0,1,2.046-1.075,2.676,2.676,0,0,1,1.113-1.177,2.689,2.689,0,0,1,.921-.314l-1.479-1.48a4.3,4.3,0,0,1-2.543.823,4.3,4.3,0,0,1-2.544-.823l-1.561,1.561a4.3,4.3,0,0,1,.823,2.543,4.3,4.3,0,0,1-.823,2.543l6.957,6.956a4.329,4.329,0,0,1,2.543-.822A4.324,4.324,0,0,1-6089.733,17.8Zm2.547-2.545.769-.769a5.321,5.321,0,0,1-1.205-.653A3,3,0,0,0-6087.187,15.25Zm-9.576-6.045a2.533,2.533,0,0,0,0,3.578,2.534,2.534,0,0,0,3.578,0,2.521,2.521,0,0,0,.681-1.238l-1.366-.465-.02-.006a3.026,3.026,0,0,1-2.048-2.419A2.552,2.552,0,0,0-6096.763,9.205Zm2.857-2.024a1.321,1.321,0,0,0-.632.8h0s0,0,0,0a1.534,1.534,0,0,0,1.116,1.809l5.436,1.844a.687.687,0,0,1,.377.314c.009.013.067.091.082.111A3.913,3.913,0,0,0-6085,13.445h0a5,5,0,0,0,.715.05,4.22,4.22,0,0,0,3.259-2.15V5.84a6.162,6.162,0,0,1-3.181-1.081,39.5,39.5,0,0,0-3.969-2.028,4.433,4.433,0,0,0-3.405.058l-.027.012-.007,0-.024.01-2.167.776,2.522,2.522s0,0,0,0l.042.043,4.872,1.544a.682.682,0,0,1,.444.857.682.682,0,0,1-.857.446l-6.126-1.941a1.327,1.327,0,0,0-.356-.049A1.332,1.332,0,0,0-6093.905,7.181Zm16.844,3.753h2.7V3.683h-2.7Zm-2.59,0h1.222V4.956h-1.222ZM-6104.318,8.3l1.559,1.558a2.948,2.948,0,0,0,.439-1.558,2.942,2.942,0,0,0-.439-1.558Zm5.089-5.089a2.939,2.939,0,0,0,1.559.44,2.954,2.954,0,0,0,1.558-.44l-1.558-1.558Zm14.973,6.586a.674.674,0,0,1-.128-.038.7.7,0,0,1-.118-.063.726.726,0,0,1-.1-.085.673.673,0,0,1-.085-.1.914.914,0,0,1-.063-.118.7.7,0,0,1-.038-.128.763.763,0,0,1-.015-.134.75.75,0,0,1,.015-.132.737.737,0,0,1,.038-.129,1,1,0,0,1,.063-.118.723.723,0,0,1,.085-.1.726.726,0,0,1,.1-.085.621.621,0,0,1,.118-.063.677.677,0,0,1,.128-.039.716.716,0,0,1,.267,0,.71.71,0,0,1,.129.039.644.644,0,0,1,.117.063.668.668,0,0,1,.1.085.612.612,0,0,1,.085.1.7.7,0,0,1,.063.118.747.747,0,0,1,.041.129.747.747,0,0,1,.012.132.761.761,0,0,1-.012.134.7.7,0,0,1-.041.128.653.653,0,0,1-.062.118.577.577,0,0,1-.085.1.668.668,0,0,1-.1.085.726.726,0,0,1-.117.063.706.706,0,0,1-.129.038.631.631,0,0,1-.134.014A.629.629,0,0,1-6084.257,9.794Z" transform="translate(6108.251 0.25)" fill="#fd8601" stroke="#f8f8f8" stroke-width="0.5"/>
</svg>