<svg xmlns="http://www.w3.org/2000/svg" width="37.168" height="36.754" viewBox="0 0 37.168 36.754" class="svg replaced-svg">
  <g id="f2" transform="translate(-743.4 -844.848)">
    <path id="return" d="M35.968,23.9A13.162,13.162,0,0,0,22.821,10.749h-6.2V6.878L6.472,13.98l10.147,7.1V17.693h6.2a6.2,6.2,0,0,1,1.054,12.314V25.26H7.256V30.1H0v6.945H7.256v4.837H23.875V37A13.164,13.164,0,0,0,35.968,23.9ZM2.107,34.935v-2.73H7.256v2.73Zm19.66,4.837H9.363v-12.4h12.4Zm2.107-4.888V32.138a8.31,8.31,0,0,0-1.054-16.552h-8.31v1.449L10.147,13.98l4.364-3.055v1.931h8.31a11.039,11.039,0,0,1,1.054,22.028Z" transform="translate(744 839.122)" fill="#fd8601" stroke="#fff" stroke-width="1.2"/>
    <path id="Path_1418" data-name="Path 1418" d="M166.626,24a1.113,1.113,0,0,0-.792-.33l-.919,0,.125-.127a1.065,1.065,0,1,0-1.5-1.509l-1.516,1.511-1.112-1.117a1.058,1.058,0,0,0-.752-.313h0a1.065,1.065,0,0,0-.951,1.545l-1.044,0h0a1.12,1.12,0,0,0-1.12,1.118l0,1.234a.249.249,0,0,0,.249.249h.368V30.7a1.122,1.122,0,0,0,1.12,1.12h6.443a1.122,1.122,0,0,0,1.12-1.12v-4.44h.366a.249.249,0,0,0,.249-.248l0-1.216A1.113,1.113,0,0,0,166.626,24Zm-2.738-1.615a.567.567,0,0,1,.8.806l-.463.473H162.6Zm-4.134.391a.563.563,0,0,1,.4-.165h0a.564.564,0,0,1,.4.167l.881.884-1.616-.015-.069-.069a.567.567,0,0,1,0-.8Zm.91,8.544h-1.892a.624.624,0,0,1-.623-.623v-4.44h2.517Zm0-5.561h-3.134l0-.985a.623.623,0,0,1,.623-.622h0l2.509,0Zm2.213,5.561h-1.719l0-5.063h1.718Zm0-5.561h-1.718v-1.6l1.718,0Zm2.956,4.938a.624.624,0,0,1-.623.623h-1.838l0-5.063h2.459Zm.615-4.938h-3.073v-1.6l2.452,0a.623.623,0,0,1,.622.624Z" transform="translate(597.806 845.925)" fill="#fd8601" stroke="#fd8601" stroke-width="0.3"/>
  </g>
</svg>